<svg width="38" height="44" viewBox="0 0 38 44" fill="none" xmlns="http://www.w3.org/2000/svg">
<path d="M0 0.999999C0 0.447714 0.447715 0 1 0H36.7143C37.2666 0 37.7143 0.447715 37.7143 1V40.7474C37.7143 42.5438 36.258 44 34.4617 44C33.962 44 33.4691 43.8849 33.0211 43.6636L20.5444 37.5002C19.7311 37.0984 18.7798 37.0862 17.9564 37.4669L9.82979 41.2252L4.43441 43.7128C4.02405 43.902 3.57755 44 3.12568 44C1.39942 44 0 42.6006 0 40.8743V0.999999Z" fill="#959595"/>
<path d="M0 0.999999C0 0.447714 0.447715 0 1 0H18.4857C19.038 0 19.4857 0.447715 19.4857 1V36.4264C19.4857 36.8264 19.2474 37.1879 18.8797 37.3455L9.82979 41.2252L4.43441 43.7128C4.02405 43.902 3.57755 44 3.12568 44C1.39942 44 0 42.6006 0 40.8743V0.999999Z" fill="#7B7B7B"/>
</svg>
