<svg width="38" height="44" viewBox="0 0 38 44" fill="none" xmlns="http://www.w3.org/2000/svg">
<path d="M0 0.999999C0 0.447714 0.447715 0 1 0H36.71C37.2623 0 37.71 0.447715 37.71 1V40.7478C37.71 42.544 36.254 44 34.4578 44C33.9582 44 33.4653 43.8849 33.0173 43.6636L20.5423 37.5003C19.729 37.0985 18.7775 37.0862 17.9541 37.4671L9.82867 41.2252L4.43394 43.7128C4.02361 43.902 3.57712 44 3.12527 44C1.39923 44 0 42.6008 0 40.8747V0.999999Z" fill="#FFB32C"/>
<path d="M0 0.999999C0 0.447714 0.447715 0 1 0H18.4835C19.0358 0 19.4835 0.447715 19.4835 1V36.4264C19.4835 36.8264 19.2452 37.1879 18.8776 37.3455L9.82867 41.2252L4.43394 43.7128C4.02361 43.902 3.57712 44 3.12527 44C1.39923 44 0 42.6008 0 40.8747V0.999999Z" fill="#FFA300"/>
</svg>
