<svg width="86" height="86" viewBox="0 0 86 86" fill="none" xmlns="http://www.w3.org/2000/svg">
<path d="M56.2909 38.8303C56.2909 38.7243 56.2761 38.6182 56.2476 38.5168L54.9113 33.8433C54.2158 31.4091 51.9606 29.7091 49.4295 29.7091H35.7875C33.2564 29.7091 31.0023 31.4091 30.3057 33.8433L28.9717 38.5168C28.9432 38.6182 28.9272 38.7243 28.9272 38.8303C28.9272 39.9842 29.3582 41.0388 30.0674 41.8437V52.5121C30.0674 55.0273 32.1128 57.0727 34.628 57.0727H41.4689C43.9841 57.0727 46.0295 55.0273 46.0295 52.5121V42.7787C46.4582 42.5301 46.8436 42.2131 47.1697 41.8437C48.0054 42.7923 49.2288 43.3909 50.5901 43.3909H51.7303C52.1236 43.3909 52.5056 43.3408 52.8704 43.2461V55.9326C52.8704 56.562 53.3801 57.0727 54.0106 57.0727C54.6411 57.0727 55.1507 56.562 55.1507 55.9326V41.8437C55.8599 41.0399 56.2909 39.9842 56.2909 38.8303ZM41.4689 54.7924H34.628C33.3704 54.7924 32.3477 53.7697 32.3477 52.5121V50.2318H43.7492V52.5121C43.7492 53.7697 42.7265 54.7924 41.4689 54.7924ZM43.7492 47.9515H32.3477V43.2461C32.7125 43.3408 33.0945 43.3909 33.4879 43.3909H34.628C35.9893 43.3909 37.2116 42.7912 38.0485 41.8437C38.8853 42.7923 40.1076 43.3909 41.4689 43.3909H43.7492V47.9515ZM50.5901 41.1106C49.3325 41.1106 48.3098 40.0879 48.3098 38.8303C48.3098 38.201 47.8002 37.6902 47.1697 37.6902C46.5392 37.6902 46.0295 38.201 46.0295 38.8303C46.0295 40.0879 45.0068 41.1106 43.7492 41.1106H41.4689C40.2113 41.1106 39.1886 40.0879 39.1886 38.8303C39.1886 38.201 38.6778 37.6902 38.0485 37.6902C37.4191 37.6902 36.9083 38.201 36.9083 38.8303C36.9083 40.0879 35.8856 41.1106 34.628 41.1106H33.4879C32.9292 41.1106 32.4161 40.9077 32.0193 40.5736C31.9863 40.5405 31.9521 40.5098 31.9156 40.4801C31.512 40.0959 31.2486 39.5657 31.2121 38.9751L32.4982 34.4704C32.9155 33.0098 34.2677 31.9894 35.7875 31.9894H36.9083V34.2697C36.9083 34.8991 37.4191 35.4099 38.0485 35.4099C38.6778 35.4099 39.1886 34.8991 39.1886 34.2697V31.9894H46.0295V34.2697C46.0295 34.8991 46.5392 35.4099 47.1697 35.4099C47.8002 35.4099 48.3098 34.8991 48.3098 34.2697V31.9894H49.4295C50.9481 31.9894 52.3015 33.0098 52.7188 34.4704L54.006 38.9751C53.9319 40.1654 52.9388 41.1118 51.7303 41.1118H50.5901V41.1106Z" fill="#FF8B3D"/>
<path d="M86 43C86 66.7482 66.7482 86 43 86C19.2518 86 0 66.7482 0 43C0 19.2518 19.2518 0 43 0C66.7482 0 86 19.2518 86 43ZM3.28057 43C3.28057 64.9364 21.0636 82.7194 43 82.7194C64.9364 82.7194 82.7194 64.9364 82.7194 43C82.7194 21.0636 64.9364 3.28057 43 3.28057C21.0636 3.28057 3.28057 21.0636 3.28057 43Z" fill="#FF8B3D"/>
</svg>
