<svg width="86" height="86" viewBox="0 0 86 86" fill="none" xmlns="http://www.w3.org/2000/svg">
<path d="M86 43C86 66.7482 66.7482 86 43 86C19.2518 86 0 66.7482 0 43C0 19.2518 19.2518 0 43 0C66.7482 0 86 19.2518 86 43ZM3.28057 43C3.28057 64.9364 21.0636 82.7194 43 82.7194C64.9364 82.7194 82.7194 64.9364 82.7194 43C82.7194 21.0636 64.9364 3.28057 43 3.28057C21.0636 3.28057 3.28057 21.0636 3.28057 43Z" fill="#53AEE2"/>
<path d="M43.0736 41.7096L53.5491 50.4641L46.1294 56.0299C44.2764 57.4204 41.7275 57.4204 39.8746 56.0299L31.8827 50.0354C31.2064 49.5285 30.3829 49.2535 29.5372 49.2535H28.668C27.9474 49.2535 27.3636 48.6697 27.3636 47.9504V33.5336C27.3636 32.8716 27.8575 32.3204 28.5156 32.2461C30.2839 32.0493 31.8762 31.3391 33.5051 30.3904C35.848 29.185 38.922 29.615 40.8232 31.3964L41.6272 32.1692L36.4058 37.2658C35.0075 38.6628 34.7847 40.8716 35.8871 42.3976C36.5647 43.3398 37.7909 44.0383 39.0719 44.0383C40.1052 44.0383 41.0969 43.6317 41.8136 42.9137L43.0736 41.7083V41.7096ZM53.3654 30.3904C51.1632 29.2892 48.4163 29.5759 46.4486 31.1045L38.2353 39.1215C37.7518 39.6063 37.6424 40.3817 37.9994 40.8769C38.234 41.2026 38.5741 41.3981 38.9624 41.4307C39.3468 41.4633 39.7195 41.3238 39.9892 41.0528L44.7038 36.5843C45.9404 35.4101 47.7322 37.2841 46.506 38.4673L44.967 39.8969L56.1644 49.2548H57.3333C58.0526 49.2548 58.6364 48.671 58.6364 47.9517V33.4893C58.6364 32.8507 58.1699 32.323 57.5405 32.2096C55.3331 31.8108 53.3641 30.3917 53.3641 30.3917L53.3654 30.3904Z" fill="#53AEE2"/>
</svg>
