<svg width="113" height="113" viewBox="0 0 113 113" fill="none" xmlns="http://www.w3.org/2000/svg">
<circle cx="56.2996" cy="56.2996" r="56.2996" fill="#53AEE2"/>
<path d="M103 88C94 102.5 75.4034 113 55.9261 113C37.2486 113 20.1357 103.348 10.4556 89.0852C10.7828 88.5254 11.1182 87.9667 11.463 87.4152C13.5713 83.9807 26.2501 78.5406 44.2308 76.5871C48.0777 76.1571 52.1665 75.8985 56.4444 75.8559C60.9632 75.804 65.4134 76.0969 69.6653 76.6307C85.2687 78.576 98.5757 84.4876 103 88Z" fill="#BAE6FF"/>
<path d="M70.9573 77.957C70.9573 77.957 67.0107 85.9975 56.8951 86.0069C48.6125 86.0069 42.5722 78.8221 42.5722 78.8221C45.4854 76.207 45.662 71.3673 45.2341 67.5609C44.8903 64.4525 44.1456 62.0326 44.1456 62.0326H68.9207C67.4127 66.9835 67.4687 70.5395 68.0555 73.0144C68.9196 76.6546 70.9573 77.957 70.9573 77.957Z" fill="white"/>
<path d="M68.0535 73.0154C50.1466 77.7056 46.5916 67.4778 46.5916 67.4778L45.2331 67.5619C44.8894 64.4535 44.1447 62.0336 44.1447 62.0336H68.9197C67.4117 66.9845 67.4678 70.5395 68.0535 73.0154Z" fill="#263238"/>
<path d="M74.314 44.6377C74.314 44.6377 76.3102 42.4692 77.2906 43.1827C78.271 43.8962 79.429 45.9162 78.8941 47.7576C78.3592 49.599 76.0422 52.8081 75.8646 54.6796C75.686 56.5511 74.4843 58.6708 73.1695 57.4329C71.8536 56.1938 74.314 44.6377 74.314 44.6377Z" fill="white"/>
<path d="M38.7513 44.6377C38.7513 44.6377 36.7552 42.4692 35.7748 43.1827C34.7944 43.8962 33.6364 45.9162 34.1712 47.7576C34.7061 49.599 37.0231 52.8081 37.2007 54.6796C37.3794 56.5511 38.58 58.6708 39.8958 57.4329C41.2117 56.1938 38.7513 44.6377 38.7513 44.6377Z" fill="white"/>
<path d="M56.1111 19.576C81.2059 19.576 75.2404 52.9992 70.6219 63.7297C69.0007 67.4976 60.5956 72.4432 56.5327 72.4432C52.7534 72.4432 44.1042 66.5328 42.5713 62.9933C37.8998 52.2099 32.1918 19.576 56.1111 19.576Z" fill="white"/>
<path d="M66.4988 28.1214C66.4988 28.1214 57.4975 31.5082 47.1607 28.1214C47.1607 28.1214 43.7739 27.923 42.4373 29.6263C41.1007 31.3295 42.4373 36.5878 42.7935 38.7262C43.1497 40.8646 39.8523 42.3508 40.2979 47.7565L39.0225 49.6218C39.0225 49.6218 35.482 40.9228 36.3731 33.4368C37.2642 25.9508 41.9907 23.0407 41.9907 23.0407C41.9907 23.0407 44.1447 16.5757 56.7726 16.6245C70.382 16.6764 71.756 24.044 71.756 24.044C71.756 24.044 80.9837 30.1975 74.1582 50.2491L72.6772 47.7565C72.6772 47.7565 73.3969 43.7165 70.9542 40.1521C69.7651 38.4167 71.6677 33.201 71.2212 30.5278C70.7766 27.8545 66.4988 28.1214 66.4988 28.1214Z" fill="#263238"/>
<path d="M68.9197 28.3852C68.9197 28.3852 66.1145 32.5488 56.8993 33.4378C56.8993 33.4378 57.832 32.6724 58.5299 31.1031C58.5299 31.1031 54.7723 34.3071 48.7372 33.4378C42.7021 32.5685 39.3808 37.2587 39.3808 37.2587L37.8177 44.3116C37.8177 44.3116 32.2988 38.0407 36.2308 28.0746L34.8173 29.2472C34.8173 29.2472 36.3804 15.8621 52.4376 15.374L50.4882 14.2015C50.4882 14.2015 66.5196 10.7825 72.7831 21.3333C72.7831 21.3333 78.3634 22.3895 79.7312 32.0222L78.1681 31.0055C78.1681 31.0055 80.6492 39.0128 75.5 45.7074C75.5 45.7074 68.9197 35.1088 68.9197 28.3852Z" fill="#263238"/>
</svg>
