<svg width="42" height="42" viewBox="0 0 42 42" fill="none" xmlns="http://www.w3.org/2000/svg">
<path d="M42 21C42 32.598 32.598 42 21 42C9.40202 42 0 32.598 0 21C0 9.40202 9.40202 0 21 0C32.598 0 42 9.40202 42 21ZM1.60214 21C1.60214 31.7131 10.2869 40.3979 21 40.3979C31.7131 40.3979 40.3979 31.7131 40.3979 21C40.3979 10.2869 31.7131 1.60214 21 1.60214C10.2869 1.60214 1.60214 10.2869 1.60214 21Z" fill="#BAE6FF"/>
<g clip-path="url(#clip0_131_1594)">
<path d="M27.0417 12H15.9583C13.7757 12 12 13.7757 12 15.9583V27.0417C12 29.2243 13.7757 31 15.9583 31H27.0417C29.2243 31 31 29.2243 31 27.0417V15.9583C31 13.7757 29.2243 12 27.0417 12ZM29.4167 27.0417C29.4167 28.3511 28.3511 29.4167 27.0417 29.4167H15.9583C14.6489 29.4167 13.5833 28.3511 13.5833 27.0417V15.9583C13.5833 14.6489 14.6489 13.5833 15.9583 13.5833H27.0417C28.3511 13.5833 29.4167 14.6489 29.4167 15.9583V27.0417ZM24.6667 23.0833C24.6667 24.3928 23.6011 25.4583 22.2917 25.4583V26.25C22.2917 26.6878 21.9378 27.0417 21.5 27.0417C21.0622 27.0417 20.7083 26.6878 20.7083 26.25V25.4583H20.4962C19.6515 25.4583 18.863 25.0039 18.4394 24.2716C18.2201 23.8924 18.35 23.4087 18.7276 23.1902C19.1068 22.9693 19.5905 23.1007 19.809 23.4784C19.9507 23.7238 20.2135 23.875 20.4954 23.875H22.2909C22.7279 23.875 23.0825 23.5203 23.0825 23.0833C23.0825 22.7841 22.868 22.5308 22.5727 22.4817L20.1653 22.0803C19.1028 21.9038 18.3325 20.9933 18.3325 19.9167C18.3325 18.6073 19.3981 17.5417 20.7075 17.5417V16.75C20.7075 16.313 21.0614 15.9583 21.4992 15.9583C21.937 15.9583 22.2909 16.313 22.2909 16.75V17.5417H22.503C23.3478 17.5417 24.1363 17.9969 24.5598 18.7292C24.7791 19.1076 24.6493 19.5913 24.2716 19.8106C23.8916 20.0299 23.4079 19.9 23.1902 19.5216C23.0485 19.277 22.7857 19.1258 22.5038 19.1258H20.7083C20.2713 19.1258 19.9167 19.4813 19.9167 19.9175C19.9167 20.2167 20.1312 20.47 20.4265 20.5191L22.834 20.9205C23.8964 21.097 24.6667 22.0075 24.6667 23.0841V23.0833Z" fill="#53AEE2"/>
</g>
<defs>
<clipPath id="clip0_131_1594">
<rect width="19" height="19" fill="white" transform="translate(12 12)"/>
</clipPath>
</defs>
</svg>
