<svg width="42" height="42" viewBox="0 0 42 42" fill="none" xmlns="http://www.w3.org/2000/svg">
<path d="M23.8333 10.25C24.4215 10.4516 24.9567 10.7832 25.3992 11.22L26.7792 12.6017C27.2165 13.0436 27.5484 13.5786 27.75 14.1667H23.8333V10.25ZM28 15.8333V25.8333C27.9987 26.938 27.5593 27.997 26.7782 28.7782C25.997 29.5593 24.938 29.9987 23.8333 30H17.1667C16.062 29.9987 15.003 29.5593 14.2218 28.7782C13.4407 27.997 13.0013 26.938 13 25.8333V14.1667C13.0013 13.062 13.4407 12.003 14.2218 11.2218C15.003 10.4407 16.062 10.0013 17.1667 10H22.1667V14.1667C22.1667 14.6087 22.3423 15.0326 22.6548 15.3452C22.9674 15.6577 23.3913 15.8333 23.8333 15.8333H28ZM24.5067 24.5108C24.4424 24.4219 24.3611 24.3465 24.2676 24.289C24.1741 24.2315 24.0702 24.1931 23.9618 24.1759C23.8534 24.1587 23.7426 24.1631 23.6359 24.1888C23.5292 24.2146 23.4287 24.2611 23.34 24.3258C22.7801 24.7156 22.1261 24.9484 21.4458 25C21.1793 24.9927 20.9241 24.8908 20.7258 24.7125C20.2909 24.3674 19.7543 24.1755 19.1992 24.1667C18.2747 24.2536 17.3942 24.6022 16.6608 25.1717C16.5698 25.2365 16.4928 25.3191 16.4343 25.4143C16.3758 25.5096 16.3371 25.6157 16.3205 25.7262C16.3039 25.8367 16.3096 25.9495 16.3375 26.0577C16.3653 26.166 16.4146 26.2675 16.4825 26.3563C16.5504 26.4451 16.6355 26.5194 16.7326 26.5746C16.8298 26.6299 16.9371 26.665 17.0481 26.678C17.1591 26.6909 17.2716 26.6814 17.3789 26.6499C17.4862 26.6185 17.586 26.5658 17.6725 26.495C18.1163 26.1474 18.642 25.9195 19.1992 25.8333C19.4042 25.8333 19.5083 25.8983 19.7825 26.0833C20.2573 26.4584 20.8441 26.6637 21.4492 26.6667C22.4848 26.6193 23.4848 26.2741 24.3292 25.6725C24.5062 25.5416 24.6243 25.3459 24.6575 25.1283C24.6908 24.9106 24.6366 24.6886 24.5067 24.5108ZM24.6667 21.6667C24.6667 21.4457 24.5789 21.2337 24.4226 21.0774C24.2663 20.9211 24.0543 20.8333 23.8333 20.8333H17.1667C16.9457 20.8333 16.7337 20.9211 16.5774 21.0774C16.4211 21.2337 16.3333 21.4457 16.3333 21.6667C16.3333 21.8877 16.4211 22.0996 16.5774 22.2559C16.7337 22.4122 16.9457 22.5 17.1667 22.5H23.8333C24.0543 22.5 24.2663 22.4122 24.4226 22.2559C24.5789 22.0996 24.6667 21.8877 24.6667 21.6667ZM24.6667 18.3333C24.6667 18.1123 24.5789 17.9004 24.4226 17.7441C24.2663 17.5878 24.0543 17.5 23.8333 17.5H17.1667C16.9457 17.5 16.7337 17.5878 16.5774 17.7441C16.4211 17.9004 16.3333 18.1123 16.3333 18.3333C16.3333 18.5543 16.4211 18.7663 16.5774 18.9226C16.7337 19.0789 16.9457 19.1667 17.1667 19.1667H23.8333C24.0543 19.1667 24.2663 19.0789 24.4226 18.9226C24.5789 18.7663 24.6667 18.5543 24.6667 18.3333Z" fill="#53AEE2"/>
<path d="M42 21C42 32.598 32.598 42 21 42C9.40202 42 0 32.598 0 21C0 9.40202 9.40202 0 21 0C32.598 0 42 9.40202 42 21ZM1.60214 21C1.60214 31.7131 10.2869 40.3979 21 40.3979C31.7131 40.3979 40.3979 31.7131 40.3979 21C40.3979 10.2869 31.7131 1.60214 21 1.60214C10.2869 1.60214 1.60214 10.2869 1.60214 21Z" fill="#BAE6FF"/>
</svg>
