<svg width="42" height="42" viewBox="0 0 42 42" fill="none" xmlns="http://www.w3.org/2000/svg">
<path d="M23.8333 9H17.1667C16.062 9.00132 15.003 9.44073 14.2218 10.2218C13.4407 11.0029 13.0013 12.062 13 13.1666V28.1665C13.0001 28.318 13.0416 28.4667 13.1199 28.5965C13.1982 28.7262 13.3105 28.8322 13.4445 28.9029C13.5786 28.9736 13.7294 29.0064 13.8807 28.9978C14.0321 28.9892 14.1782 28.9394 14.3033 28.854L16.0583 27.6548L17.8133 28.854C17.952 28.9489 18.1161 28.9997 18.2842 28.9997C18.4522 28.9997 18.6163 28.9489 18.755 28.854L20.505 27.6548L22.255 28.854C22.3937 28.9491 22.558 29 22.7262 29C22.8945 29 23.0588 28.9491 23.1975 28.854L24.9475 27.6556L26.6975 28.8531C26.8226 28.9383 26.9685 28.9879 27.1197 28.9964C27.2708 29.005 27.4214 28.9722 27.5553 28.9016C27.6892 28.831 27.8013 28.7253 27.8797 28.5958C27.958 28.4662 27.9996 28.3178 28 28.1665V13.1666C27.9987 12.062 27.5593 11.0029 26.7782 10.2218C25.997 9.44073 24.938 9.00132 23.8333 9ZM26.3333 26.5831L25.4167 25.9565C25.2778 25.8612 25.1134 25.8102 24.945 25.8102C24.7766 25.8102 24.6122 25.8612 24.4733 25.9565L22.7233 27.1556L20.9733 25.9565C20.8346 25.8614 20.6703 25.8104 20.5021 25.8104C20.3339 25.8104 20.1696 25.8614 20.0308 25.9565L18.2808 27.1556L16.5308 25.9565C16.3923 25.8617 16.2283 25.811 16.0604 25.811C15.8925 25.811 15.7286 25.8617 15.59 25.9565L14.6667 26.5831V13.1666C14.6667 12.5036 14.9301 11.8677 15.3989 11.3989C15.8677 10.93 16.5036 10.6666 17.1667 10.6666H23.8333C24.4964 10.6666 25.1323 10.93 25.6011 11.3989C26.0699 11.8677 26.3333 12.5036 26.3333 13.1666V26.5831Z" fill="#53AEE2"/>
<path d="M23.8334 15.6666H17.1667C16.7065 15.6666 16.3334 16.0397 16.3334 16.4999C16.3334 16.9602 16.7065 17.3332 17.1667 17.3332H23.8334C24.2936 17.3332 24.6667 16.9602 24.6667 16.4999C24.6667 16.0397 24.2936 15.6666 23.8334 15.6666Z" fill="#53AEE2"/>
<path d="M22.1667 18.9999H17.1667C16.7065 18.9999 16.3334 19.373 16.3334 19.8332C16.3334 20.2935 16.7065 20.6665 17.1667 20.6665H22.1667C22.6269 20.6665 23 20.2935 23 19.8332C23 19.373 22.6269 18.9999 22.1667 18.9999Z" fill="#53AEE2"/>
<path d="M42 21C42 32.598 32.598 42 21 42C9.40202 42 0 32.598 0 21C0 9.40202 9.40202 0 21 0C32.598 0 42 9.40202 42 21ZM1.60214 21C1.60214 31.7131 10.2869 40.3979 21 40.3979C31.7131 40.3979 40.3979 31.7131 40.3979 21C40.3979 10.2869 31.7131 1.60214 21 1.60214C10.2869 1.60214 1.60214 10.2869 1.60214 21Z" fill="#BAE6FF"/>
</svg>
